<?xml version="1.0" encoding="UTF-8"?>
<svg xmlns="http://www.w3.org/2000/svg" viewBox="0 0 519.05 487.26">
  <defs>
    <style>
      .cls-1 {
        fill: none;
        stroke: #000;
        stroke-linecap: round;
        stroke-linejoin: round;
        stroke-width: 14px;
      }

      .cls-2 {
        fill: #fff;
      }
    </style>
  </defs>
  <g id="_레이어_2" data-name="레이어 2">
    <path class="cls-2" d="M116.56,441.71c-28.76,0-53.08-5.26-72.28-15.63-14.59-7.88-25.84-18.56-33.45-31.75-20.63-35.76-11.56-84.18,25.54-136.35,33.75-47.45,87.65-93.96,151.77-130.96,49.3-28.45,100.73-49,148.73-59.43,23.39-5.09,45.44-7.67,65.53-7.67,21.67,0,40.98,3,57.39,8.92,22.06,7.96,38.38,20.89,48.51,38.45,12.63,21.89,14.17,49.27,4.46,79.17-2.85,8.75-10.94,14.63-20.13,14.63-2.23,0-4.43-.35-6.55-1.04-5.37-1.75-9.75-5.48-12.32-10.52-2.57-5.04-3.02-10.78-1.27-16.16,5.99-18.43,5.7-33.54-.86-44.92-4.99-8.65-13.81-15.31-26.2-19.77-11.74-4.23-26.14-6.38-42.8-6.38-54.42,0-126.68,22.96-193.32,61.41-58.96,34.02-108.12,76.22-138.42,118.82-26.55,37.33-35.07,70.37-23.37,90.65,3.63,6.29,9.32,11.56,16.9,15.66,12.69,6.85,30.83,10.47,52.46,10.47,13.87,0,29.02-1.47,45.01-4.37,1.25-.23,2.52-.34,3.78-.34,10.24,0,19,7.31,20.83,17.39,2.08,11.49-5.57,22.53-17.05,24.61-18.74,3.4-36.53,5.12-52.87,5.12h0s0,0,0,0Z"/>
    <path class="cls-2" d="M116.56,427.53c-26.2,0-48.41-4.67-65.55-13.93-12.24-6.61-21.63-15.48-27.91-26.37-17.7-30.68-8.89-73.67,24.82-121.05,32.59-45.83,84.91-90.89,147.3-126.89,48.05-27.72,98.07-47.73,144.66-57.86,46.15-10.03,85.95-9.78,115.1.73,18.82,6.79,32.63,17.62,41.04,32.2,10.57,18.32,11.69,41.73,3.25,67.7-1.2,3.68-5.14,5.69-8.82,4.49-3.68-1.19-5.69-5.14-4.49-8.82,7.28-22.41,6.59-41.38-2.07-56.38-6.71-11.63-18.04-20.39-33.66-26.02-55.52-20.02-155.19,2.52-248.02,56.08-60.69,35.02-111.43,78.66-142.89,122.88-30.34,42.66-38.9,80.29-24.1,105.94,4.96,8.6,12.51,15.68,22.44,21.04,24.08,13,61.98,15.69,106.74,7.57,3.8-.69,7.45,1.83,8.14,5.64.69,3.8-1.83,7.45-5.64,8.14-18.02,3.27-34.88,4.9-50.34,4.9Z"/>
    <g>
      <path class="cls-2" d="M291.63,487.26c-2.45,0-4.9-.63-7.09-1.9-4.38-2.53-7.08-7.21-7.08-12.27v-46.29l-15.66,9.01c-2.19,1.26-4.63,1.89-7.07,1.89s-4.84-.62-7.02-1.86l-36.28-20.69c-4.42-2.52-7.15-7.22-7.15-12.31v-197.93c0-5.05,2.69-9.72,7.05-12.26,2.2-1.28,4.66-1.92,7.12-1.92s4.84.62,7.02,1.86l73.18,41.73c4.42,2.52,7.15,7.22,7.15,12.31v88.89l32.91-18.95v-175.39c0-5.05,2.69-9.72,7.05-12.25,2.2-1.28,4.66-1.92,7.12-1.92s4.84.62,7.02,1.86l73.72,42.03c4.42,2.52,7.15,7.22,7.15,12.31v141.33c0,5.07-2.71,9.75-7.1,12.28l-36.86,21.22c-2.19,1.26-4.63,1.89-7.07,1.89s-4.84-.62-7.02-1.86l-3.2-1.83v74.36c0,5.07-2.71,9.75-7.1,12.28l-49.33,28.4-24.39,14.05c-2.19,1.26-4.63,1.89-7.07,1.89Z"/>
      <polygon class="cls-2" points="389.75 162.21 352.88 141.19 352.88 324.77 291.63 360.04 291.63 246.63 254.73 225.6 218.45 204.91 218.45 402.84 254.73 423.53 291.63 402.28 291.63 444.56 291.63 473.08 316.02 459.03 365.35 430.63 365.35 359.83 365.35 331.88 389.75 345.78 426.61 324.56 426.61 183.23 389.75 162.21"/>
      <path class="cls-2" d="M145.26,375.29c-2.42,0-4.84-.62-7.02-1.86l-73.18-41.72c-4.42-2.52-7.15-7.22-7.15-12.31V119.75c0-5.07,2.71-9.75,7.1-12.28L248.38,1.89c2.19-1.26,4.63-1.89,7.07-1.89s4.9.64,7.1,1.91l36.18,20.94c4.38,2.53,7.07,7.21,7.07,12.27v169.01c0,5.05-2.69,9.72-7.05,12.26-2.2,1.28-4.66,1.92-7.12,1.92s-4.84-.62-7.02-1.86l-73.18-41.73c-4.42-2.52-7.15-7.22-7.15-12.31v-17.79l-44.84,25.82v190.7c0,5.05-2.69,9.72-7.05,12.25-2.2,1.28-4.66,1.92-7.12,1.92Z"/>
      <polygon class="cls-2" points="218.45 162.4 254.73 183.08 291.63 204.12 291.63 35.11 255.45 14.17 72.08 119.75 72.08 319.4 108.4 340.1 145.26 361.12 145.26 162.23 218.45 120.09 218.45 162.4"/>
    </g>
    <path class="cls-2" d="M465.96,257.14c-20.14,0-36.52-16.38-36.52-36.52s16.38-36.52,36.52-36.52,36.52,16.38,36.52,36.52-16.38,36.52-36.52,36.52Z"/>
    <path class="cls-2" d="M465.96,242.97c-12.32,0-22.35-10.03-22.35-22.35s10.03-22.35,22.35-22.35,22.35,10.03,22.35,22.35-10.03,22.35-22.35,22.35ZM465.96,212.27c-4.6,0-8.35,3.75-8.35,8.35s3.75,8.35,8.35,8.35,8.35-3.75,8.35-8.35-3.75-8.35-8.35-8.35Z"/>
  </g>
  <g id="_레이어_1" data-name="레이어 1">
    <path class="cls-1" d="M492.61,179.91c7.64-23.5,7.25-44.88-2.66-62.04-7.73-13.4-20.59-23.07-37.35-29.11-56.09-20.23-155.92.08-253.89,56.6C71.47,218.78-4.44,325.51,29.16,383.74c5.74,9.94,14.29,17.83,25.18,23.7,26.06,14.07,65.44,16.63,111.32,8.3"/>
    <g>
      <polygon points="389.75 162.21 352.88 141.19 352.88 324.77 291.63 360.04 291.63 246.63 254.73 225.6 218.45 204.91 218.45 402.84 254.73 423.53 291.63 402.28 291.63 444.56 291.63 473.08 316.02 459.03 365.35 430.63 365.35 359.83 365.35 331.88 389.75 345.78 426.61 324.56 426.61 183.23 389.75 162.21"/>
      <polygon points="218.45 162.4 254.73 183.08 291.63 204.12 291.63 35.11 255.45 14.17 72.08 119.75 72.08 319.4 108.4 340.1 145.26 361.12 145.26 162.23 218.45 120.09 218.45 162.4"/>
    </g>
    <circle class="cls-1" cx="465.96" cy="220.62" r="15.35"/>
  </g>
</svg>